<svg id="visual" viewBox="0 0 960 540" width="960" height="540" xmlns="http://www.w3.org/2000/svg" xmlns:xlink="http://www.w3.org/1999/xlink" version="1.1"><rect x="0" y="0" width="960" height="540" fill="#001220"></rect><path d="M0 148L22.8 159C45.7 170 91.3 192 137 194.3C182.7 196.7 228.3 179.3 274 171.8C319.7 164.3 365.3 166.7 411.2 163.5C457 160.3 503 151.7 548.8 146.8C594.7 142 640.3 141 686 144C731.7 147 777.3 154 823 159.2C868.7 164.3 914.3 167.7 937.2 169.3L960 171L960 0L937.2 0C914.3 0 868.7 0 823 0C777.3 0 731.7 0 686 0C640.3 0 594.7 0 548.8 0C503 0 457 0 411.2 0C365.3 0 319.7 0 274 0C228.3 0 182.7 0 137 0C91.3 0 45.7 0 22.8 0L0 0Z" fill="#fa7268"></path><path d="M0 161L22.8 156C45.7 151 91.3 141 137 132.5C182.7 124 228.3 117 274 120.3C319.7 123.7 365.3 137.3 411.2 146.3C457 155.3 503 159.7 548.8 165C594.7 170.3 640.3 176.7 686 171C731.7 165.3 777.3 147.7 823 142.8C868.7 138 914.3 146 937.2 150L960 154L960 0L937.2 0C914.3 0 868.7 0 823 0C777.3 0 731.7 0 686 0C640.3 0 594.7 0 548.8 0C503 0 457 0 411.2 0C365.3 0 319.7 0 274 0C228.3 0 182.7 0 137 0C91.3 0 45.7 0 22.8 0L0 0Z" fill="#ef5f67"></path><path d="M0 102L22.8 100.3C45.7 98.7 91.3 95.3 137 100.3C182.7 105.3 228.3 118.7 274 126.3C319.7 134 365.3 136 411.2 130.3C457 124.7 503 111.3 548.8 108.2C594.7 105 640.3 112 686 117.8C731.7 123.7 777.3 128.3 823 131C868.7 133.7 914.3 134.3 937.2 134.7L960 135L960 0L937.2 0C914.3 0 868.7 0 823 0C777.3 0 731.7 0 686 0C640.3 0 594.7 0 548.8 0C503 0 457 0 411.2 0C365.3 0 319.7 0 274 0C228.3 0 182.7 0 137 0C91.3 0 45.7 0 22.8 0L0 0Z" fill="#e34c67"></path><path d="M0 68L22.8 65.2C45.7 62.3 91.3 56.7 137 54.8C182.7 53 228.3 55 274 56.7C319.7 58.3 365.3 59.7 411.2 58.7C457 57.7 503 54.3 548.8 59.3C594.7 64.3 640.3 77.7 686 80.8C731.7 84 777.3 77 823 74.2C868.7 71.3 914.3 72.7 937.2 73.3L960 74L960 0L937.2 0C914.3 0 868.7 0 823 0C777.3 0 731.7 0 686 0C640.3 0 594.7 0 548.8 0C503 0 457 0 411.2 0C365.3 0 319.7 0 274 0C228.3 0 182.7 0 137 0C91.3 0 45.7 0 22.8 0L0 0Z" fill="#d53867"></path><path d="M0 36L22.8 40.7C45.7 45.3 91.3 54.7 137 58C182.7 61.3 228.3 58.7 274 58.3C319.7 58 365.3 60 411.2 61.5C457 63 503 64 548.8 60.7C594.7 57.3 640.3 49.7 686 45.7C731.7 41.7 777.3 41.3 823 45.3C868.7 49.3 914.3 57.7 937.2 61.8L960 66L960 0L937.2 0C914.3 0 868.7 0 823 0C777.3 0 731.7 0 686 0C640.3 0 594.7 0 548.8 0C503 0 457 0 411.2 0C365.3 0 319.7 0 274 0C228.3 0 182.7 0 137 0C91.3 0 45.7 0 22.8 0L0 0Z" fill="#c62368"></path></svg>