<svg id="visual" viewBox="0 0 960 540" width="960" height="540" xmlns="http://www.w3.org/2000/svg" xmlns:xlink="http://www.w3.org/1999/xlink" version="1.1"><path d="M0 244L14.5 231.3C29 218.7 58 193.3 87.2 172.7C116.3 152 145.7 136 174.8 135.2C204 134.3 233 148.7 262 160.3C291 172 320 181 349 183.7C378 186.3 407 182.7 436.2 178.2C465.3 173.7 494.7 168.3 523.8 154.8C553 141.3 582 119.7 611 115.2C640 110.7 669 123.3 698 127C727 130.7 756 125.3 785.2 119C814.3 112.7 843.7 105.3 872.8 113.3C902 121.3 931 144.7 945.5 156.3L960 168L960 0L945.5 0C931 0 902 0 872.8 0C843.7 0 814.3 0 785.2 0C756 0 727 0 698 0C669 0 640 0 611 0C582 0 553 0 523.8 0C494.7 0 465.3 0 436.2 0C407 0 378 0 349 0C320 0 291 0 262 0C233 0 204 0 174.8 0C145.7 0 116.3 0 87.2 0C58 0 29 0 14.5 0L0 0Z" fill="#6198ff"></path><path d="M0 298L14.5 289.8C29 281.7 58 265.3 87.2 250C116.3 234.7 145.7 220.3 174.8 214.2C204 208 233 210 262 220.8C291 231.7 320 251.3 349 257.5C378 263.7 407 256.3 436.2 244.7C465.3 233 494.7 217 523.8 203.5C553 190 582 179 611 183.5C640 188 669 208 698 214.3C727 220.7 756 213.3 785.2 201.7C814.3 190 843.7 174 872.8 180.3C902 186.7 931 215.3 945.5 229.7L960 244L960 166L945.5 154.3C931 142.7 902 119.3 872.8 111.3C843.7 103.3 814.3 110.7 785.2 117C756 123.3 727 128.7 698 125C669 121.3 640 108.7 611 113.2C582 117.7 553 139.3 523.8 152.8C494.7 166.3 465.3 171.7 436.2 176.2C407 180.7 378 184.3 349 181.7C320 179 291 170 262 158.3C233 146.7 204 132.3 174.8 133.2C145.7 134 116.3 150 87.2 170.7C58 191.3 29 216.7 14.5 229.3L0 242Z" fill="#3c80ff"></path><path d="M0 390L14.5 379.2C29 368.3 58 346.7 87.2 327.7C116.3 308.7 145.7 292.3 174.8 283.3C204 274.3 233 272.7 262 286.2C291 299.7 320 328.3 349 341C378 353.7 407 350.3 436.2 338.7C465.3 327 494.7 307 523.8 284.5C553 262 582 237 611 242.5C640 248 669 284 698 294.7C727 305.3 756 290.7 785.2 276.2C814.3 261.7 843.7 247.3 872.8 260C902 272.7 931 312.3 945.5 332.2L960 352L960 242L945.5 227.7C931 213.3 902 184.7 872.8 178.3C843.7 172 814.3 188 785.2 199.7C756 211.3 727 218.7 698 212.3C669 206 640 186 611 181.5C582 177 553 188 523.8 201.5C494.7 215 465.3 231 436.2 242.7C407 254.3 378 261.7 349 255.5C320 249.3 291 229.7 262 218.8C233 208 204 206 174.8 212.2C145.7 218.3 116.3 232.7 87.2 248C58 263.3 29 279.7 14.5 287.8L0 296Z" fill="#0066ff"></path><path d="M0 471L14.5 475.5C29 480 58 489 87.2 489C116.3 489 145.7 480 174.8 478.2C204 476.3 233 481.7 262 481.7C291 481.7 320 476.3 349 475.5C378 474.7 407 478.3 436.2 473.8C465.3 469.3 494.7 456.7 523.8 452.2C553 447.7 582 451.3 611 457.7C640 464 669 473 698 470.2C727 467.3 756 452.7 785.2 451.7C814.3 450.7 843.7 463.3 872.8 464.3C902 465.3 931 454.7 945.5 449.3L960 444L960 350L945.5 330.2C931 310.3 902 270.7 872.8 258C843.7 245.3 814.3 259.7 785.2 274.2C756 288.7 727 303.3 698 292.7C669 282 640 246 611 240.5C582 235 553 260 523.8 282.5C494.7 305 465.3 325 436.2 336.7C407 348.3 378 351.7 349 339C320 326.3 291 297.7 262 284.2C233 270.7 204 272.3 174.8 281.3C145.7 290.3 116.3 306.7 87.2 325.7C58 344.7 29 366.3 14.5 377.2L0 388Z" fill="#0059dd"></path><path d="M0 541L14.5 541C29 541 58 541 87.2 541C116.3 541 145.7 541 174.8 541C204 541 233 541 262 541C291 541 320 541 349 541C378 541 407 541 436.2 541C465.3 541 494.7 541 523.8 541C553 541 582 541 611 541C640 541 669 541 698 541C727 541 756 541 785.2 541C814.3 541 843.7 541 872.8 541C902 541 931 541 945.5 541L960 541L960 442L945.5 447.3C931 452.7 902 463.3 872.8 462.3C843.7 461.3 814.3 448.7 785.2 449.7C756 450.7 727 465.3 698 468.2C669 471 640 462 611 455.7C582 449.3 553 445.7 523.8 450.2C494.7 454.7 465.3 467.3 436.2 471.8C407 476.3 378 472.7 349 473.5C320 474.3 291 479.7 262 479.7C233 479.7 204 474.3 174.8 476.2C145.7 478 116.3 487 87.2 487C58 487 29 478 14.5 473.5L0 469Z" fill="#004cbb"></path></svg>